<?xml version="1.0" standalone="no"?>
<svg width="485" height="803" viewBox="0 0 485 803" xmlns="http://www.w3.org/2000/svg" xmlns:xlink="http://www.w3.org/1999/xlink" version="1.1"><path d="M 254.5 0.12905555193936924 C 249.55 0.20423957059162423 241.675 0.6531007519513374 237 1.1265248438498436 C 232.325 1.5999489357483496 224 2.9494664553740293 218.5 4.125452665240244 C 213 5.3014388751064585 204 7.808048886001973 198.5 9.695697133896944 C 193 11.583345381791915 184.45 15.087293462313475 179.5 17.482248423944856 C 174.55 19.877203385576237 167.575 23.700925480114844 164 25.979408634030648 C 160.425 28.257891787946452 157.23687799359993 29.757131590073293 156.91528443022207 29.311052638756962 C 156.5936908668442 28.864973687440635 155.49555787494 26.25 154.4749888926572 23.5 C 153.45441991037438 20.75 150.79254191677444 16.551796440018045 148.55970446243512 14.17065875559565 C 146.3268670080958 11.789521071173258 142.025 8.63952107117326 139 7.1706587555956505 C 134.4418441071087 4.957335311101088 132.13004493511463 4.5 125.5 4.5 C 118.89297667325393 4.5 116.54232853713792 4.961865467500487 112 7.152538129998055 C 108.82560510979528 8.683484218350603 104.6814602418635 11.854763913525979 102.19919732820365 14.652538129998055 C 99.83375585871566 17.318642158499124 97.02125585871566 21.862499999999997 95.94919732820365 24.75 C 94.87713879769164 27.637500000000003 94 32.25 94 35 C 94 37.75 94.96338611860614 42.5875 96.14085804134697 45.75 C 97.5905498628117 49.64363881790946 99.93117917936064 53.153659436501286 103.39085804134697 56.622139943248754 C 106.99128913791166 60.231730767280375 110.35546922448023 62.44645323090236 114.78341447390358 64.12213994324875 C 118.23929243455055 65.42996297446194 121.05179243455055 66.6125 121.03341447390358 66.75 C 121.0150365132566 66.8875 119.13157868942858 70.0375 116.84795264317462 73.75 C 114.56432659692067 77.4625 111.81518911663612 82.525 110.7387582425423 85 C 109.66232736844849 87.475 107.68478974508199 92.65 106.34423019061676 96.5 C 105.00367063615153 100.35 103.25280811643607 106.5375 102.45342459124907 110.25 C 101.65404106606208 113.9625 101 117.675 101 118.5 C 101 119.5930107332264 102.15313625585854 119.17732367829815 105.25 116.96794342431829 C 107.5875 115.30031230769336 111.75 113.21807103696973 114.5 112.34074060048803 C 117.90198910369882 111.25540656948654 121.89701634445176 110.87447330968874 127 111.14884240793023 C 132.3197263630811 111.43486498288853 136.09886733374054 112.29952762646539 140 114.12322586008756 C 143.025 115.53735032819918 147.30115993041812 118.45062997390697 149.50257762315135 120.59718062832707 C 151.70399531588458 122.74373128274718 154.80543829841898 126.75 156.39467313989442 129.5 C 157.98390798136987 132.25 159.89524805095175 137.5375 160.64209551674307 141.25 C 161.66333922110877 146.32649476783126 161.7494446785453 149.54954188163774 160.9893975905726 154.25 C 160.4335662653875 157.6875 158.8585662653875 162.8625 157.4893975905726 165.75 C 156.12022891575765 168.6375 152.8625 173.1375 150.25 175.75 C 147.6375 178.3625 143.475 181.50484423473026 141 182.73298718828948 C 138.525 183.96113014184868 133.8 185.49888198130654 130.5 186.15021349819582 C 125.4069625569988 187.1554425295061 123.44187701683472 187.07394593067275 117.5 185.61107371869025 C 113.4261789369499 184.60811125197472 108.40987218789293 182.46571394358324 105.5 180.48603472351095 L 100.5 177.08437462945412 L 99.98358151962738 191.79218731472707 L 99.46716303925476 206.5 L 93.5938418741968 221.5 C 90.36351523341492 229.75 79.8681760836742 255.39999999999998 70.27086598588407 278.5 C 60.67355588809395 301.6 49.66229312561333 328.375 45.80139318037159 338 C 41.94049323512985 347.625 35.73864629187487 363.6 32.019511084249416 373.5 C 28.30037587662396 383.4 23.431788727619033 397.125 21.20042853090513 404 C 18.969068334191224 410.875 15.56690066806556 422.8 13.640055939514767 430.5 C 11.713211210963973 438.2 8.785192176051584 451.925 7.133346973042791 461 C 5.481501770033998 470.075 3.3335151391283517 484.025 2.36004334880802 492 C 1.137461499023971 502.0157912627539 0.5761634954110075 513.9221385995797 0.5450473195673453 530.5 C 0.5137333238778774 547.1832544925052 0.911980371063783 556.3291863768737 1.8513561316848666 560.5 C 2.594602004111543 563.8 4.0571020041115435 567.9625 5.101356131684867 569.75 C 6.14561025925819 571.5375 8.8 573.9 11 575 C 13.613069933303843 576.306534966652 16.993711970875726 576.9987125425561 20.75 576.9962868857635 C 23.9125 576.9942446729335 30.14998129688103 576.4317446729335 34.61106954862451 575.7462868857635 C 41.09527314509537 574.7499721755447 43.251438726071996 574.7507169280206 45.36106954862451 575.75 L 48 577 L 48.382114911250326 642.75 C 48.60654294224658 681.3670301224817 49.22549991822881 712.8330218055353 49.88200310463796 719 C 50.49677840981348 724.775 52.19582046771854 739.85 53.657652122204766 752.5 C 55.88984287174634 771.816323391304 56.156321934784835 776.781278820416 55.321483967654174 783.5 C 54.76872654771328 787.9485554451884 54.69869031697037 792.4988437810408 55.16372003883704 793.75 C 55.62861804592531 795.0008018421175 57.88737429822247 796.8576964277213 60.25 797.9313656126656 C 62.5875 798.9936166996316 67.65 800.4561166996316 71.5 801.1813656126656 C 75.90328090890473 802.0108395588906 86.29015727328581 802.4971534487398 99.5 802.4923265250793 C 112.88233049677613 802.4874365737722 121.95098466728074 802.0506071672027 124.5 801.2880976550712 C 126.7 800.629992187773 130.0483226180337 799.0584452514873 131.94071692896375 797.7957711299919 C 133.83311123989384 796.5330970084964 136.4189536195795 793.475 137.68703332826527 791 C 138.95511303695102 788.525 141.31320373960602 780.425 142.92723488972086 773 C 144.66686443534894 764.9972118410667 146.27759381130417 753.5955872818173 146.8828486088342 745 C 147.54359469833815 735.6163475173959 148.81687260158756 726.9714844707615 150.49138566272728 720.5 C 151.914524646971 715 154.31481587429124 708.475 155.82536616788343 706 C 157.62679223522198 703.0484071033079 160.45196231460233 700.3858267009173 164.03591062357097 698.2619756876849 C 167.2561336169031 696.3536686258593 171.5532848463062 694.7713596023767 174.5 694.4088594814041 C 177.25 694.070558939723 189.4 694.2844924198155 201.5 694.884267214943 C 213.6 695.4840420100704 247.125 695.9726075818179 276 695.9699684854929 L 328.5 695.9651701285386 L 331.3327190147758 705.7325850642693 C 333.17908417335667 712.0989823428793 334.33694561457946 718.8079036731053 334.6579922931511 725 C 334.9288971381308 730.225 334.7514288464684 741.7 334.2636183116791 750.5 C 333.77580777688985 759.3 333.7382636546696 768.75 334.1801869289675 771.5 C 334.62211020326544 774.25 336.2241491159858 778.975 337.7402734016796 782 C 339.25639768737335 785.025 343.4225688343247 790.531747191135 346.9984315060159 794.2372159802999 L 353.5 800.9744319605998 L 377 800.9826683698232 C 389.925 800.987198394896 405.45 800.7159281276059 411.5 800.379845553623 C 418.54971778596865 799.9882278181913 423.2182331298239 799.256211118394 424.5 798.3414636706357 L 426.5 796.914141013072 L 426.5547329562845 781.207070506536 C 426.59999812352106 768.2170326657181 427.32877624274204 760.5700271612875 430.7677736924728 737 C 433.0548429714199 721.325 435.82848006709105 700.4 436.9314116828531 690.5 C 438.0343432986151 680.6 439.601846150423 664.625 440.41475135353716 655 C 441.2276565566513 645.375 442.3946102962447 629.175 443.0079818859669 619 C 443.6213534756891 608.825 444.2853620476714 599.6 444.4835564903721 598.5 C 444.734425655236 597.1076497524857 446.46270263187006 595.9359175828192 450.1719550112776 594.6433962085121 C 453.10237975507494 593.6222641231938 457.9312112333777 591.1472641231937 460.9026916297282 589.1433962085121 C 463.8741720260787 587.1395282938305 468.10185377090914 583.25 470.2975399515735 580.5 C 472.49322613223785 577.75 475.9715907710588 571.9 478.0272391489534 567.5 C 480.08288752684797 563.1 482.3802057820176 557.025 483.1323908271081 554 C 484.042526121454 550.3397846269797 484.47983923520104 542.6461398232464 484.43972978968947 531 C 484.3909856057134 516.8466858637852 483.8498243449577 510.24893373232294 481.6099685128083 496.5 C 480.08674842619445 487.15 476.89086743359576 469.825 474.50801075147785 458 C 472.12515406935995 446.175 468.13731620942434 427.5 465.6461488405098 416.5 C 463.15498147159525 405.5 458.82748164266087 387.05 456.02948255398894 375.5 C 453.23148346531707 363.95 445.7473801286949 334.25 439.39814180593964 309.5 C 433.0489034831844 284.75 426.49794215764376 259.775 424.8404499714049 254 C 423.182957785166 248.225 420.1587131266673 239.9 418.11990628585215 235.5 C 415.59086085383234 230.04200384356258 413.22053550093307 226.54674855866404 410.66019969602326 224.5 L 406.9074146349492 221.5 L 406.9537073174746 201.75 C 406.97916829286356 190.8875 406.8875 181.99038081826328 406.75 181.9786240405851 C 406.6125 181.96686726290687 405.15 182.63486620113704 403.5 183.46306612554102 C 401.85 184.291266049945 397.8 185.50113707113957 394.5 186.15166839486227 C 389.4058024904125 187.1558911370492 387.4432304278521 187.07363834547758 381.5 185.6068291449669 C 377.2126144110111 184.54868800364508 372.4044799932092 182.44942426707934 369.0924345207368 180.18960283506055 C 366.11827350714196 178.16032127577725 361.932312534973 174.025 359.7902990270279 171 C 357.64828551908283 167.975 355.19155156689055 163.025 354.33089024437845 160 C 353.29455848410447 156.3575642441113 352.8933375709381 151.79808837220173 353.14292862775574 146.5 C 353.44325619514626 140.12492385371624 354.1491720430217 137.17974936885554 356.61836950462373 132 C 358.32257955353157 128.425 361.6931232531807 123.56497248024621 364.1084666149553 121.19993884499159 C 366.5238099767299 118.83490520973697 370.975 115.6860045097448 374 114.20238173389788 C 378.08420293680325 112.19926884192361 381.43063235890463 111.4071582714221 387 111.12524006507604 C 392.0485307972209 110.86968632203825 396.13431280185273 111.26638886433028 399.5 112.33890779698851 C 402.25 113.21523019154546 406.3 115.14604432635522 408.5 116.62960587434353 L 412.5 119.32699050704952 L 411.63489957610443 114.41349525352476 C 411.1590943429619 111.71107286408613 409.64731845766676 105.675 408.2753976087819 101 C 406.903476759897 96.325 404.0679021395279 88.9 401.97412067462835 84.5 C 399.88033920972873 80.1 396.7796150950239 74.1375 395.0836226419509 71.25 L 392 66 L 395.25 65.37678893964286 C 397.0375 65.03402285644644 400.525 63.737273074178056 403 62.49512275682424 C 405.475 61.25297243947042 409.33044725918546 58.27091741663113 411.5676605759677 55.86833381718137 C 413.80487389275 53.46575021773162 416.61737389275 48.9125 417.8176605759677 45.75 C 419.09928412024925 42.37319467885399 420 37.729987698487484 420 34.5 C 420 31.475 419.12286120230834 26.637500000000003 418.05080267179636 23.75 C 416.9787441412844 20.862499999999997 414.1662441412844 16.31864215849913 411.80080267179636 13.652538129998064 C 409.43536120230834 10.986434101497 405.25 7.7134235453567275 402.5 6.379181338575236 C 399.75 5.044939131793747 395.025 3.672636221605744 392 3.329619315935232 C 388.84193822110234 2.971514000459597 384.3709652535434 3.217726628354176 381.5 3.907845266226439 C 378.75 4.568886444557115 374.1375 6.660047196245988 371.25 8.55486915886838 C 368.11101539637195 10.614719190829575 364.6212475269027 14.11101539637196 362.57110483599456 17.25 C 360.6852124957916 20.137500000000003 358.6602124957916 24.4125 358.07110483599456 26.75 L 357 31 L 351.25 27.299808080072232 C 348.0875 25.26470252411196 342.8 22.139755936891408 339.5 20.355482330693228 C 336.2 18.571208724495044 330.125 15.704081435449428 326 13.984088355036306 C 321.875 12.264095274623184 315.125 9.785200980742676 311 8.47543436863518 C 306.875 7.165667756527682 299.45 5.20744440079198 294.5 4.123826911444728 C 289.55 3.040209422097476 280.55 1.6673307038453358 274.5 1.0729853153288607 C 268.45 0.47863992681238554 259.45 0.05387153328711436 254.5 0.12905555193936924 Z M 391.25 16.546575950660632 C 393.3125 16.795959177797283 396.35 17.675 398 18.5 C 399.65 19.325 402.1439397877302 21.6875 403.5420884171782 23.75 C 404.94023704662624 25.8125 406.3475346968953 29.525 406.6694165288873 32 C 407.09333004405397 35.2595376494054 406.7221588793475 37.7404623505946 405.3229264557475 41 C 404.26047508352866 43.475 401.84067743325954 46.72964436688775 399.94559834403844 48.23254303752833 C 397.6725772238269 50.03516987212013 394.7984417991497 51.16460984356561 391.5 51.55138329489094 C 387.46303632724727 52.02475541047233 385.6348219170578 51.69105503374051 382.0080714067392 49.81884025736261 C 379.53751068044573 48.54347811581317 376.49921609112477 45.925 375.2563056526926 44 C 374.0133952142604 42.075 372.7384539081815 38.925 372.4231027502951 37 C 372.10775159240865 35.075 372.3335461817296 31.5875 372.9248685043417 29.25 C 373.56337538702104 26.72597920594282 375.4213946401882 23.578605359811796 377.5 21.5 C 379.425 19.575 382.4625 17.570959177797285 384.25 17.046575950660632 C 386.0375 16.522192723523975 389.1875 16.297192723523978 391.25 16.546575950660632 Z M 125 18.091529678089657 C 125.825 18.047322982983314 128.1875 18.458644248324184 130.25 19.005576934402697 C 132.3125 19.552509620481214 135.381641007167 21.2375 137.07031334925998 22.75 C 138.75898569135296 24.2625 140.82847064070234 27.3 141.66916879225857 29.5 C 142.68569678068005 32.160124291206564 142.99711292070907 35.091102404192206 142.5988554429986 38.25 C 142.10704893333588 42.15090955707221 141.19559852775262 43.80440147224738 137.5 47.5 C 133.80440147224738 51.19559852775261 132.1509095570722 52.107048933335875 128.25 52.59885544299861 C 125.09110240419217 52.99711292070908 122.16012429120659 52.68569678068006 119.5 51.66916879225858 C 117.3 50.828470640702335 114.2625 48.75898569135296 112.75 47.070313349259976 C 111.2375 45.38164100716699 109.52086752606152 42.0875 108.93526116902561 39.75 C 108.34965481198971 37.4125 108.17885195120706 34.15 108.5556992561753 32.5 C 108.93254656114352 30.85 109.861679035082 28.2625 110.62043808714968 26.75 C 111.37919713921735 25.2375 113.4625 23.01364820547877 115.25 21.808107123286156 C 117.0375 20.602566041093542 119.625 19.291244775752673 121 18.894059866973116 C 122.375 18.49687495819356 124.175 18.135736373196004 125 18.091529678089657 Z M 179.75 24.039141810635208 C 180.9875 24.017613814785843 183.8683317507575 24.7875 186.15184833501667 25.75 C 188.4353649192758 26.7125 191.06213859532417 28.625 191.98912317067968 30 C 192.91610774603518 31.375 193.9727759952777 33.2875 194.33727483566304 34.25 L 195 36 L 192.75 34.49177901221508 C 191.5125 33.662257468933376 188.5875 32.537257468933376 186.25 31.991779012215083 C 183.22097000231582 31.2849252759626 180.63538646799995 31.352023418566546 177.25 32.22533684371453 C 174.48466120727872 32.93869926646705 171.03761805779462 34.82430357668141 169 36.73825846513279 C 167.075 38.54643009286983 165.40400720080095 39.90752851319829 165.28668266844653 39.76292162141825 C 165.16935813609211 39.618314729638215 165.4846289876147 37.925 165.98728456071893 36 C 166.48994013382318 34.075 167.93593293302226 31.183399174598666 169.2006018922724 29.57422038799703 C 170.46527085152258 27.9650416013954 172.85 26.070155416181244 174.5 25.36336219863224 C 176.15 24.65656898108324 178.5125 24.060669806484576 179.75 24.039141810635208 Z M 334 25.606701285148354 C 335.925 25.880172084107002 338.625 26.922502187700843 340 27.92299040424578 C 341.375 28.923478620790718 343.2823038148012 30.81259641387653 344.2384529217805 32.12102994443647 C 345.1946020287598 33.42946347499641 346.2393895030428 36.075 346.56020286463166 38 C 347.0605089393859 41.00202332325595 346.9554425588373 41.271401821868395 345.82174994285117 39.893311050846954 C 345.094787474283 39.009632128812775 342.7 37.0834236633055 340.5 35.61284779416412 C 337.2558038921382 33.444285743716854 335.3662941617927 32.943897750594665 330.5 32.96460531577954 C 325.7892972733184 32.984650791974786 323.694189204176 33.52840402148705 320.75 35.49506857246237 L 317 38 L 317.9840118454555 35.25 C 318.525218360456 33.7375 320.212718360456 31.265290686673847 321.7340118454555 29.756201525941883 C 323.255305330455 28.247112365209915 325.85 26.584245736612484 327.5 26.060942351280925 C 329.15 25.537638965949366 332.075 25.33323048618971 334 25.606701285148354 Z M 190.5 58.65425627641491 C 193.25 58.952851411229666 197.3 59.96764586570844 199.5 60.909355064145515 C 201.7 61.8510642625826 205.3 64.21399713787468 207.5 66.16031700923905 C 209.7 68.10663688060342 212.6105969140399 72.12928731908278 213.96799314231086 75.09954020585985 C 215.8413705604995 79.19886254704957 216.43653994442514 82.1865160593429 216.43828428742012 87.5 C 216.44003979356341 92.8474882674887 215.89582637008195 95.56232897090013 214.13300929939874 99 C 212.86384415444786 101.475 210.4022131391487 105.00268162110922 208.66271815428948 106.83929249135383 C 206.92322316943026 108.67590336159844 203.25 111.3259154753507 200.5 112.7282082996922 C 197.42685415166653 114.29528116197324 193.18777501800014 115.45526329715152 189.5 115.73824965174524 C 184.85305023274586 116.09483956522875 182.14694976725414 115.68246912919336 177.5 113.90962381337468 C 174.2 112.65064968298321 169.7576295051594 110.01844945345013 167.6280655670209 108.06028996996783 C 165.49850162888242 106.10213048648552 162.91100162888242 102.8125 161.8780655670209 100.75 C 160.8451295051594 98.6875 159.51576040268964 94.8625 158.92391200597694 92.25 C 158.16552383304366 88.90237058545246 158.15746275323528 85.87620248000242 158.896608146721 82 C 159.48776458543892 78.8998764329415 161.37541488065477 74.33210654289708 163.22269614074406 71.53165502589994 C 165.02521326333482 68.79906529014491 168.3 65.2860551092159 170.5 63.72496573494657 C 172.7 62.16387636067726 176.975 60.26218670606415 180 59.498988724695224 C 183.14179050203612 58.706324867161996 187.6438268163308 58.344132852112374 190.5 58.65425627641491 Z M 330 59.65529403585401 C 332.475 59.93578935274221 336.525 61.05030383138577 339 62.13199287728413 C 341.475 63.213681923182484 345.1909995513236 65.7639926809338 347.2577767807191 67.79935011673149 C 349.3245540101146 69.83470755252917 352.0101509241545 73.75 353.22576992302993 76.5 C 354.8230788922218 80.11346743456713 355.43405145648484 83.44114559160602 355.42900906610885 88.5 C 355.423602356342 93.92436334735025 354.8680794344115 96.61042571922229 352.96101592379796 100.43323128875191 C 351.6074571657091 103.14650849756546 348.25 107.34310921648485 345.5 109.75901066412833 C 342.1766165299041 112.67863500466618 338.6557218171055 114.67217100188076 335 115.70412680028087 C 331.33732014771175 116.73804674833777 327.66267985228825 117.05109597574433 324 116.64123661910068 C 320.975 116.30273459221115 316.7 115.08153064197293 314.5 113.92745006301575 C 312.3 112.77336948405856 308.8090004486764 110.18006934667027 306.7422232192809 108.16456086881954 C 304.6754459898854 106.14905239096879 302.0098256102138 102.25 300.8186223755663 99.5 C 299.33862125810634 96.08328406552805 298.6495709132415 92.44173071481353 298.64260620807266 88 C 298.6354078631228 83.40926585052338 299.2896149260503 80.03133396113586 300.8698214006889 76.5 C 302.1003954141018 73.75 304.3206022407975 70.22235387805135 305.80361434890165 68.66078639566966 C 307.28662645700575 67.09921891328797 310.3 64.74435667631326 312.5 63.42775920239254 C 314.7 62.1111617284718 318.525 60.609000924306066 321 60.089624082024244 C 323.475 59.570247239742415 327.525 59.37479871896581 330 59.65529403585401 Z M 185.5 72 C 184.675 72 183.325 73.575 182.5 75.5 C 181.675 77.425 181 81.025 181 83.5 C 181 85.975 181.675 89.575 182.5 91.5 C 183.325 93.425 184.5625 95.02003640798145 185.25 95.04452535106988 C 185.9375 95.06901429415831 187.07502098038862 94.50651429415831 187.7778244008636 93.79452535106988 C 188.48062782133857 93.08253640798145 189.32092175840467 89.575 189.64514426101047 86 C 190.08278595599248 81.17439706687192 189.81801885413628 78.53400169218928 188.6173198601469 75.75 C 187.72779393706608 73.6875 186.325 72 185.5 72 Z M 325.5 73 C 324.675 73 323.325 74.575 322.5 76.5 C 321.675 78.425 321 82.025 321 84.5 C 321 86.975 321.675 90.575 322.5 92.5 C 323.325 94.425 324.5625 96.02003640798145 325.25 96.04452535106988 C 325.9375 96.06901429415831 327.0750209803886 95.50651429415831 327.77782440086355 94.79452535106988 C 328.48062782133854 94.08253640798145 329.32092175840467 90.575 329.64514426101044 87 C 330.08278595599245 82.17439706687193 329.81801885413626 79.53400169218926 328.61731986014684 76.75 C 327.7277939370661 74.6875 326.325 73 325.5 73 Z M 259.5 101.55889801253386 C 265.3185226594555 101.80732219336963 273.47240347351726 102.98312631537911 279 104.37083270989223 C 284.225 105.68257206651722 291.425 108.0752247061639 295 109.68783857577372 C 298.575 111.30045244538357 304.2 114.44354381496933 307.5 116.67248606374211 C 310.8 118.9014283125149 316.2117971359307 123.59945895903451 319.5262158576237 127.11255416711904 C 322.8406345793167 130.62564937520358 327.15560651162133 136.65 329.1150423738561 140.5 C 331.20142791724743 144.59943723949982 333.2349907336385 150.6077458148216 334.0226899202525 155 C 335.07784233066457 160.88358813794818 335.1262111761956 164.11641186205182 334.24711684386 170 C 333.4930973464802 175.04648933269578 331.8291056775345 180.11707804512452 329.1605534620895 185.5 C 326.67609045395466 190.5115828332538 323.0103285737986 195.7812092262399 319.34730002224967 199.6068026288276 C 316.13128501001233 202.9655440746828 310.35 207.73135339374159 306.5 210.19749000451378 C 302.65 212.66362661528595 296.125 216.05768797561285 292 217.73984858301796 C 287.875 219.42200919042307 280.9 221.63119987136432 276.5 222.64916120733182 C 270.6596064610746 224.0003645731183 264.7206886931195 224.48680870553417 254.5 224.451134450823 C 243.50402053240754 224.41275412400705 238.5688439434523 223.92414178501832 231.5 222.17399530611812 C 226.55 220.94844482857778 217.775 217.6492995067549 212 214.8425612576228 C 202.92570455444383 210.4323150046414 200.33280941892363 208.5690059359373 192.90389847033708 201.11970040232768 C 186.3443544238803 194.5421484433123 183.4467549007639 190.7231269522191 180.67342626495696 185 C 178.51079043688716 180.53711765866518 176.60218880474136 174.6653568519125 175.96023637576945 170.5 C 175.36688580836076 166.65 175.16355040615613 161.25 175.5083799264258 158.5 C 175.85320944669542 155.75 176.9976333980749 150.8 178.0515442628246 147.5 C 179.1054551275743 144.2 181.3923679148903 139.25 183.13357267908236 136.5 C 184.8747774432744 133.75 188.81953463037766 128.87117271076303 191.89969976153395 125.65816157947339 C 194.97986489269027 122.44515044818374 200.65 117.85110572136723 204.5 115.44917329765894 C 208.35 113.04724087395064 214.2 109.98033048983952 217.5 108.63381688852311 C 220.8 107.28730328720673 226.425 105.4239843598978 230 104.49310816116994 C 233.575 103.5622319624421 239.425 102.42515702759673 243 101.96627497262469 C 246.575 101.50739291765264 254 101.32407328561176 259.5 101.55889801253386 Z M 257 110.5015571595903 C 253.77723984616205 110.21719833988234 249.8438255664276 110.56437618087153 247.5 111.34006265502974 C 245.3 112.06815021734313 242.15 113.37173381273199 240.5 114.23691508922721 C 238.85 115.10209636572245 236.44810824879337 116.86522826557618 235.1624627750964 118.15498597779109 C 233.51314826173927 119.80957595379226 232.97908597655308 121.23605534942322 233.34852892621984 123 C 233.6365107830347 124.375 235.81340253424133 127.93213439293295 238.18606615112344 130.90474309540656 C 240.55872976800555 133.87735179788018 244.975 138.0510353743907 248 140.1795954876522 C 251.21910524202264 142.4447389648622 254.64044737898868 144.03939829518285 256.25 144.02485239224563 C 257.7625 144.01118357651055 260.4625 143.25078266063156 262.25 142.3350725791812 C 264.0375 141.41936249773087 267.9103601495927 138.38186249773088 270.8563558879838 135.5850725791812 C 273.8023516263749 132.78828266063155 276.83985162637487 129.2625 277.6063558879838 127.75 C 278.3728601495927 126.2375 279 124.1 279 123 C 279 121.9 277.5375 119.80307321310059 275.75 118.34016269577907 C 273.9625 116.87725217845757 270.25 114.62429280565608 267.5 113.33358631177578 C 264.75 112.04287981789547 260.025 110.768466699412 257 110.5015571595903 Z M 248 156.54032926759277 C 237.275 156.3263270777661 223.775 156.5211134190851 218 156.97318780385723 C 212.225 157.42526218862935 203.9 158.33587999284092 199.5 158.99678292432736 C 195.1 159.65768585581384 190.0375 160.82877907890284 188.25 161.59921230896958 C 186.4625 162.3696455390363 185 163.45 185 164 C 185 164.55 186.0125 165.9395236117689 187.25 167.08783024837533 C 188.4875 168.23613688498176 194.45 171.58678870171414 200.5 174.53372317444732 C 206.55 177.4806576471805 216.225 181.51513267154755 222 183.49922322859635 C 227.775 185.48331378564518 236.4375 187.98266196891277 241.25 189.0533303025244 C 246.0625 190.12399863613598 253.4875 190.99643152426555 257.75 190.9920700539234 C 262.0125 190.98770858358128 270.675 189.91292214389082 277 188.60365574350013 C 283.325 187.29438934310943 293.45 184.56889631984575 299.5 182.54700458069195 C 305.55 180.52511284153815 313.15211090921156 177.4373992812286 316.3935797982479 175.68541889111523 C 319.63504868728427 173.93343850100186 322.51514547902906 171.825 322.7937948910141 171 C 323.07244430299914 170.175 322.44533339378756 168.92100852399113 321.4002150927662 168.21335227553587 C 320.3550967917448 167.5056960270806 316.575 166.06848201751723 313 165.01954336539504 C 309.425 163.97060471327285 302.675 162.41047550317032 298 161.5525895651672 C 293.325 160.6947036271641 284.55 159.30353807231947 278.5 158.4611105544014 C 272.45 157.6186830364833 258.725 156.75433145741943 248 156.54032926759277 Z " fill="#000000"></path></svg>
